<svg xmlns="http://www.w3.org/2000/svg" width="114" height="131" fill="none"><path fill="#fff" fill-rule="evenodd" d="M17.5 2 2.1 16.5l-.8 1a8 8 0 0 0-1.3 4.7V80A52 52 0 0 0 8.9 110c6.8 9.6 18.2 17.5 37 20 22.6 3 38-7.3 46-20a42.8 42.8 0 0 0 22-35.5V19.9c0-3.7-.6-6.3-1.6-8a6.4 6.4 0 0 0-3.9-2.9l-.7-.2a79 79 0 0 0-12.8-3c-1.6-.3-2.8-.1-3.8.3a5 5 0 0 0-2.2 1.6L74.5 21.4c-.5.4-1 .8-1.3 1.3a7 7 0 0 0-1.2 4l.3 35.2.2 15.4.1 7c0 .8 0 3.5-.7 6.6-2.7.3-5.8.1-9.5-.6-10-2.1-15.4-7.3-18.2-13.1A38.6 38.6 0 0 1 41 60.3V11c0-3.2-.4-5.2-1.3-6.6-.9-1.4-2.2-2-3.7-2.4-1.5-.4-4.6-.7-7.6-1L20.8.7c-1.3 0-2.5.5-3.3 1.4Zm.2 1c-.7 1.1-1.2 2.6-1.2 4.3v8.9l3.9.5c1.5.4 2.8 1 3.7 2.4.9 1.4 1.3 3.5 1.3 6.6v49.5c0 4.6.4 11 3.2 16.8 2.8 5.8 8.1 11 18.3 13.1 6.3 1.4 11 .9 14.6-.6 3.6-1.5 6-4 7.7-6.8 1.1-2 2-4 2.4-6-2.7.3-5.8.1-9.3-.6-10.4-2.2-16-7.5-18.9-13.6-3-6-3.2-12.6-3.2-17.2V11c0-3.1-.5-5-1.2-6.2-.7-1.1-1.8-1.7-3.2-2a118.6 118.6 0 0 0-15-1.3c-1.3 0-2.3.6-3 1.7Zm-2 4.3v8.8a151.8 151.8 0 0 0-11.2-.6L16 4.5c-.3.8-.4 1.8-.4 2.8Zm74.7.1-.9.9c-.9 1.3-1 2.8-1 3.5v10.7a81.2 81.2 0 0 1 4.3 1.4c1.5.4 2.9 1.2 4 3 1 1.6 1.5 4.1 1.5 7.9v54.4c0 6-1.8 12.9-5.4 19.2a41.9 41.9 0 0 0 20.2-34V19.9c0-3.7-.6-6-1.5-7.5-1-1.5-2.1-2.2-3.4-2.6l-.7-.2c-2-.6-6.3-2-12.7-3-1.5-.2-2.6 0-3.4.2l-1 .6ZM76.6 20.6 87.8 10c-.2.8-.2 1.5-.2 2v10.4c-2.2-.6-5-1.2-8.3-1.7h-2.7Zm-1.8 1.7c-.4.2-.6.6-.9.9-.9 1.2-1 2.8-1 3.5a2916.6 2916.6 0 0 0 .5 48.8c4.2-.4 9-1.4 14.7-3.4l.1-2.6v-7a10896.3 10896.3 0 0 1-.6-39.3c-2.2-.6-5-1.2-8.4-1.7-1.5-.3-2.6-.1-3.4.2l-.8.4-.2.2ZM24.6 46.2V25.7c0-3-.5-5-1.2-6.1-.7-1.2-1.8-1.7-3.2-2l-3.7-.6v19c6.9 4.4 7.7 7.4 8 10.2Zm72.9 22c-3 1.4-5.9 2.6-8.5 3.6V62.4L88.8 47l-.3-23.6 3.4 1 .7.3c1.3.4 2.5 1 3.4 2.6.9 1.5 1.5 3.8 1.5 7.5v33.4ZM.9 30v-7.8c0-1.7.5-3.2 1.2-4.3.8-1 1.8-1.6 3.1-1.6a118.6 118.6 0 0 1 10.5.7v18.5C10.6 32.4 5.7 30.7.9 30Z" clip-rule="evenodd"/></svg>