<svg xmlns="http://www.w3.org/2000/svg" width="24" height="24" fill="none"><path stroke="#fff" stroke-linecap="round" stroke-linejoin="round" d="m8.8 17-1.5 2c-3.6-.1-5-2.5-5-2.5 0-3.4.8-6.7 2.4-9.8 1.3-1 3-1.6 4.6-1.7l.5 1.2a16.5 16.5 0 0 1 4.4 0l.5-1.2c1.7 0 3.3.7 4.7 1.7 1.5 3 2.3 6.4 2.4 9.8 0 0-1.4 2.4-5.1 2.5l-1.5-2m3.3-1.4c-2 1-3.8 2-6.5 2s-4.5-1-6.5-2"/><path stroke="#fff" stroke-linecap="round" stroke-linejoin="round" d="M9 14.8a1.7 1.7 0 1 0 0-3.4 1.7 1.7 0 0 0 0 3.4ZM15 14.8a1.7 1.7 0 1 0 0-3.4 1.7 1.7 0 0 0 0 3.4Z"/></svg>