<svg xmlns="http://www.w3.org/2000/svg" width="151" height="40" fill="none"><path fill="#fff" fill-rule="evenodd" d="M97 28h-2.2V13.1h2.4v6.5c.7-1.1 2-1.8 3.5-1.8 2.8 0 4.5 2.2 4.5 5.3 0 3-1.8 5.2-4.7 5.2-1.5 0-2.7-.7-3.3-1.8L97 28Zm.2-5c0 1.8 1.1 3 2.8 3 1.7 0 2.8-1.2 2.8-3 0-1.7-1-3-2.8-3-1.7 0-2.8 1.2-2.8 3Z" clip-rule="evenodd"/><path fill="#fff" d="M106.8 28h2.4V13.1h-2.4V28ZM122.5 28h2.4v-5.2l-.1-4.1 3.7 9.3h2.3l3.8-9.3c-.2 1-.2 1.9-.2 4.8V28h2.5V13.4h-2.5L129.7 25l-4.8-11.6h-2.4V28ZM142.3 25.6V13.4h-2.6V28h8.7v-2.4h-6.1Z"/><path fill="#fff" fill-rule="evenodd" d="M115.8 28.3c-3 0-5-2.2-5-5.2 0-3.1 2-5.3 5-5.3 2.9 0 4.8 2 4.8 5v.8H113c.2 1.8 1.1 2.7 2.7 2.7 1.4 0 2.3-.6 2.5-1.5h2.3c-.4 2.2-2.2 3.5-4.8 3.5Zm0-8.5c-1.5 0-2.4.8-2.6 2.3h5c0-1.4-1-2.3-2.5-2.3ZM83.8 25.2c0 1.8 1.3 3 3.4 3 1.5 0 2.8-.6 3.3-1.7l.1 1.5h2.2v-6c0-2.7-1.7-4.2-4.3-4.2-2.7 0-4.5 1.4-4.5 3.6h2.1c0-1 .8-1.7 2.3-1.7 1.2 0 2 .6 2 1.9v.2l-3 .2c-2.3.2-3.6 1.4-3.6 3.2Zm6.6-1.2c0 1.5-1 2.4-2.4 2.4-1.1 0-1.7-.4-1.7-1.3 0-.8.5-1.3 2-1.5l2.1-.1v.5Z" clip-rule="evenodd"/><path fill="#fff" d="M81.2 28h-2.4v-7.8h-1.9v-2h1.9V15h2.4v3.1h2v2h-2V28ZM70.6 25h-2.3c0 2 1.5 3.3 4 3.3 2.4 0 4.1-1.3 4.1-3.3 0-1.5-.8-2.3-2.5-2.6l-1.8-.5c-.8-.2-1.2-.5-1.2-1 0-.8.5-1.3 1.5-1.3s1.5.6 1.5 1.4h2.3c0-1.9-1.5-3.2-3.7-3.2-2.3 0-4 1.2-4 3.1 0 1.6 1 2.4 2.7 2.8l1.8.5c.9.2 1.1.5 1.1 1 0 .7-.6 1.2-1.7 1.2-1.2 0-1.8-.5-1.8-1.4ZM60.2 28h-2.4v-9.9H60l.2 1.3c.6-1 1.8-1.6 3.2-1.6 2.5 0 3.7 1.6 3.7 4.1V28h-2.4v-5.5c0-1.7-.8-2.5-2-2.5-1.6 0-2.5 1-2.5 2.7V28ZM43.8 13.4v9.3c0 3.4 2.2 5.5 5.8 5.5 3.5 0 5.8-2.1 5.8-5.5v-9.3h-2.6v9.1c0 2-1.1 3.3-3.2 3.3s-3.2-1.2-3.2-3.3v-9.1h-2.6Z"/><path fill="#fff" fill-rule="evenodd" d="M1.2 5.3 5.7 1C6 .7 6.4.5 6.9.5a34.8 34.8 0 0 1 4.5.4c.5.1 1 .3 1.4.9.3.5.4 1.2.4 2.1v14.6c0 1.3.1 3.1.9 4.8.8 1.6 2.2 3 5 3.6 1 .2 1.8.3 2.4.2.2-.7.2-1.3.2-1.5v-2.1l-.1-4.6-.1-10.3c0-.3 0-1 .4-1.4l.5-.5 4.1-4 .8-.6h1.3c2 .2 3.3.7 3.8.8l.2.1c.5.1 1 .4 1.4 1 .3.6.5 1.4.5 2.6v16A12.8 12.8 0 0 1 28 33.4c-.6.8-1.2 1.7-2 2.4a13.7 13.7 0 0 1-11.8 3.5c-5.6-.7-9-3-11-6S.4 27 .4 24.3v-17c0-.7.2-1.2.5-1.7l.2-.3Zm5.1-3.5-.2 1v2.3l.8.2c.5 0 1 .3 1.3.8.3.5.5 1.2.5 2.2v14.5c0 1.4 0 3.2.8 4.9.8 1.6 2.3 3 5.1 3.6 1.8.4 3.1.2 4-.2 1-.4 1.7-1 2.1-1.8l.6-1.2c-.7 0-1.5 0-2.3-.2a7.7 7.7 0 0 1-5.8-4.2 12 12 0 0 1-1-5.2V3.9c0-.9-.1-1.3-.3-1.6-.1-.2-.3-.4-.7-.4A20.4 20.4 0 0 0 7 1.5l-.6.3ZM5.1 3v2A48.8 48.8 0 0 0 3 5L5 3ZM23 7.5l-.3.3c-.2.2-.2.6-.2.8a866.3 866.3 0 0 0 .2 14.3c1-.1 2.2-.4 3.5-.8v-7.5L26 7.8a23 23 0 0 0-2.2-.4h-.8l-.1.1ZM7.7 13.1V8.3c0-.9-.2-1.4-.3-1.6-.2-.3-.4-.4-.7-.5H6v5.4c.8.6 1.3 1 1.6 1.5ZM28.9 21l-1.7.7v-7.1L27 8l.5.2h.2c.3.1.6.3.8.6.2.4.3 1 .3 2v10ZM1.5 9.6V7.2c0-.4.1-.8.3-1 .1-.2.3-.3.6-.3A34 34 0 0 1 5 6v5c-1.3-.8-2.5-1.2-3.6-1.4Zm24.6-5-2 1.8 2 .4V4.6Zm1-.4c0-.2 0-.5.2-.8l.2-.2.2-.1c.2-.1.4-.1.8 0 1.8.2 3 .6 3.6.8h.2c.3.1.6.3.8.6.2.4.4 1 .4 2v16.1a11.8 11.8 0 0 1-4.5 8.9c.6-1.5 1-3 1-4.5V11a5 5 0 0 0-.6-2.6c-.3-.6-.8-.9-1.3-1h-.2L27 7V4Z" clip-rule="evenodd"/></svg>