<svg xmlns="http://www.w3.org/2000/svg" width="89" height="102" fill="none"><path fill="#fff" fill-rule="evenodd" d="M2.2 13 13.9 1.5C14.6 1 15.5.6 16.6.6a91.3 91.3 0 0 1 11.8 1c1.2.3 2.2.8 3 2 .6 1 1 2.7 1 5.1V47c0 3.5.2 8.5 2.4 13 2.1 4.4 6.2 8.4 14 10 2.7.6 5 .7 7 .5.5-2.3.6-4.3.6-4.9l-.1-5.5-.2-11.9L56 21c0-.7.1-2 1-3.2.2-.4.6-.7 1-1l11-10.6c.4-.5 1-1 1.8-1.3.8-.4 1.8-.5 3-.3 5 .8 8.5 1.9 10 2.4l.4.1c1.2.4 2.3 1 3.1 2.4.8 1.3 1.3 3.3 1.3 6.3v42.2a32.8 32.8 0 0 1-17 27.7A35.3 35.3 0 0 1 36 101C21.4 99 12.6 93 7.3 85.5A40.6 40.6 0 0 1 .5 62.3V17.4c0-1.4.4-2.8 1-3.8l.7-.6ZM14.4 2.7c-.6.8-.9 1.9-.9 3.2v6.7l2.9.4c1.2.3 2.2.8 3 2 .6 1 1 2.7 1 5.2v38.3c0 3.6.2 8.5 2.4 13 2.1 4.4 6.2 8.4 14 10 4.8 1 8.4.7 11.1-.5 2.7-1 4.6-3 5.8-5.1.9-1.4 1.4-3 1.8-4.3-2 .1-4.3 0-7-.6-8-1.7-12.3-5.9-14.6-10.6A31 31 0 0 1 31.4 47V8.6c0-2.3-.4-3.8-1-4.6-.4-.9-1.2-1.3-2.3-1.5-1-.3-3.4-.5-5.7-.7l-5.8-.3c-.9 0-1.7.4-2.2 1.2Zm-1.9 3.2v6.6a119 119 0 0 0-8-.5l8.2-7.8-.2 1.7Zm45.8 11.7-.6.7c-.7 1-.8 2-.8 2.6a2275.5 2275.5 0 0 0 .4 37.8c3.2-.3 6.8-1 11-2.5v-2a987 987 0 0 0-.2-17.5L68 18.3c-1.7-.4-3.8-.9-6.4-1.3-1-.1-1.8 0-2.5.2-.2 0-.3.2-.5.3l-.2.1ZM19.3 35V20.2c0-2.4-.3-3.8-.8-4.7-.5-.8-1.3-1.3-2.4-1.5a28 28 0 0 0-2.6-.4v14.6c4.3 2.9 5.5 5 5.9 6.8Zm56.2 18.2-6.2 2.6v-7.3a8506.6 8506.6 0 0 1-.4-29.9l2.4.7.6.2c1 .3 1.8.8 2.5 2 .6 1 1.1 2.8 1.1 5.7v26Zm-74-29.7v-6c0-1.4.3-2.5.9-3.3.5-.7 1.3-1.2 2.2-1.2a90.6 90.6 0 0 1 7.9.5v14.1a30.8 30.8 0 0 0-11-4.1ZM68 8.5 60 16h1.7c2.5.4 4.5.9 6.2 1.3a1091.3 1091.3 0 0 1 0-8.9Zm1.7-1.7.6-.7.7-.4c.7-.3 1.5-.4 2.5-.2 5 .8 8.3 1.8 9.8 2.3l.6.2c1 .3 1.8.8 2.5 2 .6 1 1.1 2.8 1.1 5.7v42.2a31.9 31.9 0 0 1-15 25.9c2.7-4.8 4-9.9 4-14.4V27.2c0-3-.5-5-1.3-6.3-.8-1.3-1.9-2-3-2.3l-.6-.2-2.7-.8V9.4c0-.6.1-1.7.8-2.6Z" clip-rule="evenodd"/></svg>