<svg xmlns="http://www.w3.org/2000/svg" width="32" height="35" fill="none"><path fill="#fff" fill-rule="evenodd" d="M.3 25.7c.2-.2.5-.2.7 0L5 29.2a16.5 16.5 0 0 0 22.2 0l3.9-3.5a.5.5 0 0 1 .7.7l-4 3.6c-6.6 6-16.8 6-23.5 0L.3 26.4a.5.5 0 0 1 0-.7ZM3 13.2c.3-.2.6-.2.8 0L9 17.8c4 3.5 10 3.5 14 0l5.2-4.6a.5.5 0 0 1 .7.7l-5.3 4.7c-4.3 3.8-10.9 3.8-15.2 0L3 13.9a.5.5 0 0 1 0-.7ZM7.3.6H8l3.4 3.5a6.5 6.5 0 0 0 9.2 0L24 .6a.5.5 0 1 1 .7.8l-3.4 3.4c-3 2.9-7.7 2.9-10.6 0L7.3 1.4a.5.5 0 0 1 0-.8Z" clip-rule="evenodd"/></svg>