<svg xmlns="http://www.w3.org/2000/svg" width="34" height="40" fill="none"><path fill="#fff" fill-rule="evenodd" d="M.7 5.3 5.2 1c.3-.3.7-.5 1.2-.5a34.8 34.8 0 0 1 4.5.4c.5.1 1 .3 1.4.9.3.5.4 1.2.4 2.1v14.6c0 1.3.1 3.1.9 4.8.8 1.6 2.2 3 5 3.6 1 .2 1.8.3 2.4.2.2-.7.2-1.3.2-1.5a372.2 372.2 0 0 0-.1-6.7L21 8.6c0-.3 0-1 .4-1.4l.5-.5 4.1-4 .8-.6h1.3c2 .2 3.3.7 3.8.8l.2.1c.5.1 1 .4 1.4 1 .3.6.5 1.4.5 2.6v16a12.8 12.8 0 0 1-6.5 10.8c-.6.8-1.2 1.7-2 2.4a13.7 13.7 0 0 1-11.8 3.5c-5.6-.7-9-3-11-6S0 27 0 24.3v-17c0-.7.2-1.2.5-1.7l.2-.3Zm5.1-3.5-.2 1v2.3l.8.2c.5 0 1 .3 1.3.8.3.5.5 1.2.5 2.2v14.5c0 1.4 0 3.2.8 4.9.8 1.6 2.3 3 5.1 3.6 1.8.4 3.1.2 4-.2 1-.4 1.7-1 2.1-1.8l.6-1.2c-.7 0-1.5 0-2.3-.2a7.7 7.7 0 0 1-5.8-4.2 12 12 0 0 1-1-5.2V3.9c0-.9-.1-1.3-.3-1.6-.1-.2-.3-.4-.7-.4a20.4 20.4 0 0 0-4.3-.4l-.6.3ZM4.6 3v2a48.8 48.8 0 0 0-2-.1l2-1.9Zm17.9 4.5-.3.3c-.2.2-.2.6-.2.8a866.3 866.3 0 0 0 .2 14.3c1-.1 2.2-.4 3.5-.8v-7.5l-.1-6.8a23 23 0 0 0-2.2-.4h-.8l-.1.1ZM7.2 13.1V8.3c0-.9-.2-1.4-.3-1.6-.2-.3-.4-.4-.7-.5h-.6v5.4c.8.6 1.3 1 1.6 1.5ZM28.4 21l-1.7.7v-7.1L26.6 8l.5.2h.2c.3.1.6.3.8.6.2.4.3 1 .3 2v10ZM1 9.6V7.2c0-.4.1-.8.3-1 .1-.2.3-.3.6-.3a34 34 0 0 1 2.7.1v5C3.3 10.1 2 9.7 1 9.5Zm24.6-5-2 1.8 2 .4V4.6Zm1-.4c0-.2 0-.5.2-.8l.2-.2.2-.1c.2-.1.4-.1.8 0 1.8.2 3 .6 3.6.8h.2c.3.1.6.3.8.6.2.4.4 1 .4 2v16.1a11.8 11.8 0 0 1-4.5 8.9c.6-1.5 1-3 1-4.5V11a5 5 0 0 0-.6-2.6c-.3-.6-.8-.9-1.3-1h-.2l-.8-.3V4Z" clip-rule="evenodd"/></svg>