<svg xmlns="http://www.w3.org/2000/svg" width="68" height="68" fill="none"><rect width="68" height="68" fill="#000" rx="14"/><path stroke="#fff" stroke-width="1.1" d="M22.5 13.8c-1 0-1.5 1-1.5 2v18.7c0 5.8 2.6 14.2 14.4 15.9 11 1.4 16.6-7 16.6-13V20c0-2.4-.8-3-1.7-3.4-.3 0-1.9-.6-4.2-1-2-.3-2.2 1.3-2.2 1.8L44 36c0 .8-.2 8.5-8.4 6.8-6.5-1.4-7-6.8-7-9.8V17c0-2-.5-2.5-1.4-2.7a38 38 0 0 0-4.8-.5Z"/><path stroke="#fff" stroke-width="1.1" d="M17.5 18.6c-1 0-1.5 1-1.5 2v18.6c0 5.9 2.6 14.3 14.5 16 11 1.4 16.5-7 16.5-13V24.7c0-2.4-.7-3.1-1.6-3.4-.4 0-2-.6-4.3-1-2-.3-2.2 1.3-2.2 1.8l.2 18.5c0 .9-.2 8.6-8.4 6.8-6.5-1.3-6.9-6.8-6.9-9.7v-16c0-1.9-.6-2.5-1.5-2.7a38 38 0 0 0-4.8-.4ZM16.6 19l4.9-4.7M39.6 20.6l5-4.8"/><mask id="a" width="32" height="38" x="16" y="18" maskUnits="userSpaceOnUse" style="mask-type:alpha"><path fill="#fff" d="M17.5 18.6c-1 0-1.5 1-1.5 2v18.6c0 5.9 2.6 14.3 14.5 16 11 1.4 16.5-7 16.5-13V24.7c0-2.4-.7-3.1-1.6-3.4-.4 0-2-.6-4.3-1-2-.3-2.2 1.3-2.2 1.8l.2 18.5c0 .9-.2 8.6-8.4 6.8-6.5-1.3-6.9-6.8-6.9-9.7v-16c0-1.9-.6-2.5-1.5-2.7a38 38 0 0 0-4.8-.4Z"/></mask><g mask="url(#a)"><path fill="#fff" d="M21 25a12 12 0 0 0-13.6.2L-6 35.9l22.4 20.8L38 62.2l13.8-10.7c6.4-10.3 15.5-28.5.8-19.2S32.9 37 30.9 34.1c-11.7-4.7-4-5.3-9.9-9Z"/></g></svg>